<?xml version="1.0" encoding="UTF-8"?>
<svg xmlns="http://www.w3.org/2000/svg" xmlns:xlink="http://www.w3.org/1999/xlink" viewBox="0 0 64 64" version="1.1" width="64px" height="64px">
<g id="surface1">
<path style=" fill:#EFD8BE;" d="M 53 9 L 16 9 C 14.894531 9 14 9.894531 14 11 L 14 53 L 11 53 C 9.894531 53 9 53.894531 9 55 L 9 57 C 9 58.105469 9.894531 59 11 59 L 53 59 C 54.105469 59 55 58.105469 55 57 L 55 11 C 55 9.894531 54.105469 9 53 9 Z "/>
<path style=" fill:#CDA1A7;" d="M 12 5 L 49 5 C 50.105469 5 51 5.894531 51 7 L 51 51 C 51 52.105469 50.105469 53 49 53 L 12 53 C 10.894531 53 10 52.105469 10 51 L 10 7 C 10 5.894531 10.894531 5 12 5 Z "/>
<path style=" fill:#BF949B;" d="M 12 5 L 15 5 L 15 53 L 9 53 L 9 8 C 9 6.34375 10.34375 5 12 5 Z "/>
<path style=" fill:#ED7899;" d="M 27.421875 42.871094 L 22.578125 39.410156 C 22.234375 39.164063 21.765625 39.164063 21.421875 39.410156 L 16.578125 42.871094 C 16.277344 43.085938 15.875 43.117188 15.542969 42.945313 C 15.210938 42.773438 15 42.433594 15 42.058594 L 15 4 C 15 3.449219 15.449219 3 16 3 L 28 3 C 28.550781 3 29 3.449219 29 4 L 29 42.058594 C 29 42.433594 28.789063 42.773438 28.457031 42.945313 C 28.125 43.117188 27.722656 43.085938 27.421875 42.871094 Z "/>
<path style=" fill:#F283A5;" d="M 15 3 L 29 3 L 29 8 L 15 8 Z "/>
<path style=" fill:#8D6C9F;" d="M 33 26 L 37 26 C 37.550781 26 38 25.550781 38 25 C 38 24.449219 37.550781 24 37 24 L 33 24 C 32.449219 24 32 24.449219 32 25 C 32 25.550781 32.449219 26 33 26 Z "/>
<path style=" fill:#8D6C9F;" d="M 33 22 L 43 22 C 43.550781 22 44 21.550781 44 21 C 44 20.449219 43.550781 20 43 20 L 33 20 C 32.449219 20 32 20.449219 32 21 C 32 21.550781 32.449219 22 33 22 Z "/>
<path style=" fill:#8D6C9F;" d="M 53 8 L 52 8 L 52 7 C 52 5.34375 50.65625 4 49 4 L 29.820313 4 C 29.398438 2.804688 28.269531 2.003906 27 2 L 17 2 C 15.730469 2.003906 14.601563 2.804688 14.179688 4 L 12 4 C 9.789063 4 8 5.789063 8 8 L 8 56 C 8 58.210938 9.789063 60 12 60 L 53 60 C 54.65625 60 56 58.65625 56 57 L 56 11 C 56 9.34375 54.65625 8 53 8 Z M 16 5 C 16 4.449219 16.449219 4 17 4 L 27 4 C 27.550781 4 28 4.449219 28 5 L 28 42.359375 L 23.179688 38.828125 C 22.476563 38.316406 21.523438 38.316406 20.820313 38.828125 L 16 42.359375 Z M 10 8 C 10 6.894531 10.894531 6 12 6 L 14 6 L 14 42.359375 C 13.992188 43.117188 14.410156 43.816406 15.082031 44.164063 C 15.757813 44.511719 16.566406 44.445313 17.179688 44 L 22 40.441406 L 26.820313 44 C 27.433594 44.445313 28.242188 44.511719 28.917969 44.164063 C 29.589844 43.816406 30.007813 43.117188 30 42.359375 L 30 6 L 49 6 C 49.550781 6 50 6.449219 50 7 L 50 46 C 49.449219 46 49 46.449219 49 47 L 49 49 C 49 49.550781 49.449219 50 50 50 L 50 51 C 50 51.550781 49.550781 52 49 52 L 12 52 C 11.289063 52.027344 10.597656 52.242188 10 52.628906 L 10 50 C 10.550781 50 11 49.550781 11 49 L 11 47 C 11 46.449219 10.550781 46 10 46 Z M 54 57 C 54 57.550781 53.550781 58 53 58 L 12 58 C 10.894531 58 10 57.105469 10 56 C 10.117188 54.945313 10.945313 54.117188 12 54 L 49 54 C 50.65625 54 52 52.65625 52 51 L 52 10 L 53 10 C 53.550781 10 54 10.449219 54 11 Z "/>
<path style=" fill:#8D6C9F;" d="M 33 30 L 40 30 C 40.550781 30 41 29.550781 41 29 C 41 28.449219 40.550781 28 40 28 L 33 28 C 32.449219 28 32 28.449219 32 29 C 32 29.550781 32.449219 30 33 30 Z "/>
<path style=" fill:#8D6C9F;" d="M 44 49 C 44 49.550781 44.449219 50 45 50 C 45.550781 50 46 49.550781 46 49 L 46 47 C 46 46.449219 45.550781 46 45 46 C 44.449219 46 44 46.449219 44 47 Z "/>
<path style=" fill:#8D6C9F;" d="M 40 46 C 39.449219 46 39 46.449219 39 47 L 39 49 C 39 49.550781 39.449219 50 40 50 C 40.550781 50 41 49.550781 41 49 L 41 47 C 41 46.449219 40.550781 46 40 46 Z "/>
<path style=" fill:#8D6C9F;" d="M 35 46 C 34.449219 46 34 46.449219 34 47 L 34 49 C 34 49.550781 34.449219 50 35 50 C 35.550781 50 36 49.550781 36 49 L 36 47 C 36 46.449219 35.550781 46 35 46 Z "/>
<path style=" fill:#8D6C9F;" d="M 30 50 C 30.550781 50 31 49.550781 31 49 L 31 47 C 31 46.449219 30.550781 46 30 46 C 29.449219 46 29 46.449219 29 47 L 29 49 C 29 49.550781 29.449219 50 30 50 Z "/>
<path style=" fill:#8D6C9F;" d="M 25 50 C 25.550781 50 26 49.550781 26 49 L 26 47 C 26 46.449219 25.550781 46 25 46 C 24.449219 46 24 46.449219 24 47 L 24 49 C 24 49.550781 24.449219 50 25 50 Z "/>
<path style=" fill:#8D6C9F;" d="M 20 50 C 20.550781 50 21 49.550781 21 49 L 21 47 C 21 46.449219 20.550781 46 20 46 C 19.449219 46 19 46.449219 19 47 L 19 49 C 19 49.550781 19.449219 50 20 50 Z "/>
<path style=" fill:#8D6C9F;" d="M 15 50 C 15.550781 50 16 49.550781 16 49 L 16 47 C 16 46.449219 15.550781 46 15 46 C 14.449219 46 14 46.449219 14 47 L 14 49 C 14 49.550781 14.449219 50 15 50 Z "/>
</g>
</svg>
